<svg width="325" height="260" version="1.1" xmlns="http://www.w3.org/2000/svg" desc="Created with imagetracer.js version 1.2.6" ><path fill="rgb(2,8,50)" stroke="rgb(2,8,50)" stroke-width="1" opacity="1" d="M 83 64 Q 87.1 62.3 86 66.5 L 84.5 66 Q 81.9 66.7 83 64 Z " /><path fill="rgb(2,8,50)" stroke="rgb(2,8,50)" stroke-width="1" opacity="1" d="M 136.5 65 L 137 66.5 Q 135.3 70.8 133.5 68 Q 130.9 68.7 132 66 L 136.5 65 Z " /><path fill="rgb(2,8,50)" stroke="rgb(2,8,50)" stroke-width="1" opacity="1" d="M 140.5 67 L 144 68 Q 145.1 70.7 142.5 70 L 141 73 Q 138.3 71.9 139 74.5 L 138 75.5 L 141.5 79 L 143.5 75 L 145 78 L 143 78.5 L 144.5 81 L 148 80.5 L 147.5 82 Q 149.8 81.3 149 83.5 L 145.5 81 L 144 82.5 L 149 85.5 Q 146.8 86.8 149.5 88 L 151.5 89 L 153 86 L 158 86 L 158 89 L 153.5 88 Q 155.1 89.8 152 91.5 L 153.5 93 L 155 92.5 L 157 98 L 160 97.5 L 158 94.5 L 159.5 94 L 164.5 98 L 169 90.5 Q 166.8 89.3 169.5 88 Q 171.8 88.8 171 86.5 L 177.5 81 L 179 81.5 L 178 79.5 L 181 75.5 L 180.5 74 L 182.5 75 L 182.5 73 L 186.5 75 L 186.5 74 L 185 73.5 L 186.5 73 L 189.5 74 L 191 73.5 L 190.5 75 L 216 75.5 L 190.5 76 L 189.5 77 L 186.5 76 L 177 84.5 L 133.5 135 L 98 135 L 98 86 L 133.5 86 L 137 89.5 L 151 107 Q 153.7 108.1 153 105.5 L 158 100.5 L 154 96.5 L 137.5 77 L 91.5 77 L 90 78.5 L 89 80.5 L 89 141.5 L 91.5 144 L 137.5 144 L 189.5 86 L 215.5 86 L 220 90.5 L 222 93.5 L 230.5 102 L 232.5 102 L 236 99.5 L 237 96.5 L 220.5 77 L 217 75.5 L 221.5 75 L 224 75.5 L 223 77.5 L 225.5 81 L 227.5 81 L 229 81.5 L 228 83.5 L 231 82.5 L 229.5 85 L 231.5 84 L 231 85.5 L 233 88.5 L 235 88.5 L 234.5 90 L 237 90.5 L 235 91.5 L 238 92.5 L 237 94.5 L 239 98.5 L 238.5 101 L 234 102.5 L 234.5 104 L 231.5 103 L 229.5 104 L 229 102 L 226 101.5 L 226.5 100 L 224.5 101 L 222.5 96 L 218 94.5 L 219 93.5 L 216.5 89 L 214.5 88 L 190.5 88 L 186 90.5 L 187 92.5 L 185 93.5 L 187 94.5 L 185 95.5 Q 185.8 93.3 183.5 94 L 183.5 96 L 182 95.5 L 181 98.5 L 183 98.5 L 182 101 L 178.5 101 L 173 105.5 L 167 113.5 L 169 114.5 L 166 116.5 L 165.5 115 L 163 118.5 L 165 118.5 L 164 121.5 L 185.5 145 L 217.5 145 L 218.5 146 L 233 130.5 L 237 123.5 L 231.5 119 L 222 127.5 L 215.5 135 L 188.5 135 L 186 132.5 L 171 114.5 L 172.5 115 L 174 115 L 174 117 Q 176.7 115.9 176 118.5 L 179 123 L 183 123.5 L 181 124.5 L 183 125 L 186 131 L 191.5 134 L 192.5 133 L 208.5 133 L 209.5 132 L 212.5 133 L 215.5 131 L 217 131.5 Q 216.3 129.3 218.5 130 L 223.5 124 L 220.5 126 L 222.5 123 L 225 122.5 Q 222.7 121.3 225.5 120 L 227 120.5 Q 226.3 118.3 228.5 119 L 231.5 117 L 236 118 Q 234.8 121 238.5 120 L 237 122.5 L 238 123.5 L 239 126.5 L 237 126.5 L 235 132.5 L 235.5 134 L 233.5 133 L 233.5 135 L 231 134 Q 232.1 136.7 229.5 136 L 228 137.5 L 229.5 140 L 228.5 139 L 224 141.5 L 220.5 146 L 216.5 147 L 215.5 146 L 192.5 146 L 190.5 146 L 187.5 147 L 181.5 143 Q 180.3 145.3 179 142.5 L 177.5 139 Q 175.3 139.8 176 137.5 L 174.5 135 Q 173.3 137.3 172 134.5 L 172.5 133 Q 170.3 133.8 171 131.5 L 170 131.5 L 169.5 133 L 169 131.5 L 169 129.5 L 167.5 127 L 164 127.5 Q 167.5 126 165 124.5 L 163.5 122 L 160.5 120 L 159 124 L 156 125.5 Q 158.3 126.8 155.5 128 Q 154.3 125.8 153 128.5 L 147 135.5 L 147 138 L 143 139.5 L 145 140 Q 146.3 143.3 141.5 142 L 138.5 146 L 129.5 149 L 128.5 148 L 96.5 148 L 93.5 149 L 93.5 148 L 95 147.5 L 91 147 L 91 145 Q 88.3 146.1 89 143.5 L 87 141.5 L 87 80.5 L 90.5 76 L 94.5 74 L 95.5 75 L 128 75 L 128.5 73 Q 129.9 76.3 135 75 Q 133.7 71.7 138.5 73 L 140 70.5 L 139 68.5 L 140.5 67 Z M 174 84 L 174 86 L 176 85 L 174 84 Z M 172 86 L 172 88 L 174 87 L 172 86 Z M 99 87 L 100 92 L 102 93 L 99 95 L 99 128 L 100 130 L 99 133 L 102 133 L 105 129 L 106 133 Q 111 135 109 130 Q 113 129 112 132 L 110 133 L 128 133 L 129 132 L 128 129 Q 126 123 130 124 L 130 132 L 129 133 L 133 133 L 132 131 L 134 131 L 139 127 Q 138 124 141 125 L 140 122 Q 139 119 142 120 L 143 122 L 153 111 L 152 108 L 149 106 L 147 107 L 147 105 L 145 106 L 145 103 Q 146 100 142 101 Q 138 100 139 95 L 138 95 L 138 94 L 132 87 L 99 87 Z M 159 99 Q 160 102 157 104 L 160 104 L 162 101 L 159 99 Z " /><path fill="rgb(2,8,50)" stroke="rgb(2,8,50)" stroke-width="1" opacity="1" d="M 80.5 68 Q 82.8 67.3 82 69.5 L 80.5 68 Z " /><path fill="rgb(2,8,50)" stroke="rgb(2,8,50)" stroke-width="1" opacity="1" d="M 90.5 70 L 94 71.5 L 93 74 L 89.5 75 L 87 74 Q 85.9 71.3 88.5 72 L 90.5 70 Z " /><path fill="rgb(2,8,50)" stroke="rgb(2,8,50)" stroke-width="1" opacity="1" d="M 132.5 70 Q 136.3 69 135 72 L 132.5 70 Z " /><path fill="rgb(2,8,50)" stroke="rgb(2,8,50)" stroke-width="1" opacity="1" d="M 177.5 72 L 176.5 74 L 177.5 72 Z " /><path fill="rgb(2,8,50)" stroke="rgb(2,8,50)" stroke-width="1" opacity="1" d="M 83.5 76 Q 86.8 74.9 86 77.5 L 83.5 81 L 82 77.5 L 83.5 76 Z " /><path fill="rgb(2,8,50)" stroke="rgb(2,8,50)" stroke-width="1" opacity="1" d="M 152.5 80 Q 158.3 78.3 157 82 Q 152.3 83 152.5 80 Z " /><path fill="rgb(2,8,50)" stroke="rgb(2,8,50)" stroke-width="1" opacity="1" d="M 102.5 88 Q 105.1 87.3 104 90 L 101 89.5 L 102.5 88 Z " /><path fill="rgb(2,8,50)" stroke="rgb(2,8,50)" stroke-width="1" opacity="1" d="M 106.5 90 Q 110.3 89 109 92 L 105 91.5 L 106.5 90 Z " /><path fill="rgb(2,8,50)" stroke="rgb(2,8,50)" stroke-width="1" opacity="1" d="M 128 90 Q 131 89 130 92 Q 127 93 128 90 Z " /><path fill="rgb(2,8,50)" stroke="rgb(2,8,50)" stroke-width="1" opacity="1" d="M 132.5 91 L 135 92.5 L 133.5 93 L 132.5 91 Z " /><path fill="rgb(2,8,50)" stroke="rgb(2,8,50)" stroke-width="1" opacity="1" d="M 108 94 L 111 95.5 L 108 97 L 108 94 Z " /><path fill="rgb(2,8,50)" stroke="rgb(2,8,50)" stroke-width="1" opacity="1" d="M 130 94 Q 134.1 92.3 133 96.5 L 134 103 L 132 103 L 132 97.5 Q 129 98.3 130 94 Z " /><path fill="rgb(2,8,50)" stroke="rgb(2,8,50)" stroke-width="1" opacity="1" d="M 137.5 106 L 141.5 106 L 143 107.5 L 137 108 L 137.5 106 Z " /><path fill="rgb(2,8,50)" stroke="rgb(2,8,50)" stroke-width="1" opacity="1" d="M 175.5 106 L 174.5 110 Q 171 108 175.5 106 Z " /><path fill="rgb(2,8,50)" stroke="rgb(2,8,50)" stroke-width="1" opacity="1" d="M 145.5 109 L 146 111 L 148.5 110 L 149 111.5 L 148 114 L 144.5 116 L 144 114 Q 147 115.3 146 111.5 L 145.5 109 Z " /><path fill="rgb(2,8,50)" stroke="rgb(2,8,50)" stroke-width="1" opacity="1" d="M 128 110 L 130 110 L 130 115 L 128 115 L 128 110 Z " /><path fill="rgb(2,8,50)" stroke="rgb(2,8,50)" stroke-width="1" opacity="1" d="M 135 112 Q 139.1 110.7 138 114 Q 133.9 115.3 135 112 Z " /><path fill="rgb(2,8,50)" stroke="rgb(2,8,50)" stroke-width="1" opacity="1" d="M 132.5 115 L 134 118 L 139 118 L 139 120 L 136 120 Q 137 123 134 122 L 130 116.5 L 132.5 115 Z " /><path fill="rgb(2,8,50)" stroke="rgb(2,8,50)" stroke-width="1" opacity="1" d="M 216.5 120 L 218 122.5 L 216 123.5 L 217 121.5 L 216.5 120 Z " /><path fill="rgb(2,8,50)" stroke="rgb(2,8,50)" stroke-width="1" opacity="1" d="M 160.5 123 L 162 126 Q 158.5 127.1 160.5 123 Z " /><path fill="rgb(2,8,50)" stroke="rgb(2,8,50)" stroke-width="1" opacity="1" d="M 136.5 124 L 137.5 126 L 136.5 124 Z " /><path fill="rgb(2,8,50)" stroke="rgb(2,8,50)" stroke-width="1" opacity="1" d="M 133 126 Q 136.7 124.5 136 127.5 Q 134.5 130.5 133 127.5 L 133 126 Z " /><path fill="rgb(2,8,50)" stroke="rgb(2,8,50)" stroke-width="1" opacity="1" d="M 84.5 127 L 85 128.5 L 82 130 Q 80.9 127.3 83.5 128 L 84.5 127 Z " /><path fill="rgb(2,8,50)" stroke="rgb(2,8,50)" stroke-width="1" opacity="1" d="M 156 130 L 160 132 L 160 134.5 L 158.5 134 L 156 132.5 L 156 130 Z " /><path fill="rgb(2,8,50)" stroke="rgb(2,8,50)" stroke-width="1" opacity="1" d="M 82 134 L 84 134 L 84 139 L 82 139 L 82 134 Z " /><path fill="rgb(2,8,50)" stroke="rgb(2,8,50)" stroke-width="1" opacity="1" d="M 150 135 L 154 137 L 154 141.5 L 151 139.5 L 150 135 Z " /><path fill="rgb(2,8,50)" stroke="rgb(2,8,50)" stroke-width="1" opacity="1" d="M 176.5 140 L 177.5 142 L 176.5 140 Z " /><path fill="rgb(2,8,50)" stroke="rgb(2,8,50)" stroke-width="1" opacity="1" d="M 84 142 Q 87 141 86 144 Q 83 145 84 142 Z " /><path fill="rgb(2,8,50)" stroke="rgb(2,8,50)" stroke-width="1" opacity="1" d="M 146.5 142 L 149 143.5 L 147.5 144 L 146.5 142 Z " /><path fill="rgb(2,8,50)" stroke="rgb(2,8,50)" stroke-width="1" opacity="1" d="M 138.5 154 Q 144.3 152.3 143 156 Q 138.3 157 138.5 154 Z " /><path fill="rgb(2,8,50)" stroke="rgb(2,8,50)" stroke-width="1" opacity="1" d="M 90 159 L 93 160.5 L 92.5 162 L 90.5 162 L 88 160.5 L 90 160.5 L 90 159 Z " /><path fill="rgb(2,8,50)" stroke="rgb(2,8,50)" stroke-width="1" opacity="1" d="M 102.5 160 Q 104.8 159.3 104 161.5 L 102.5 160 Z " /><path fill="rgb(2,8,50)" stroke="rgb(2,8,50)" stroke-width="1" opacity="1" d="M 106 160 L 109 160.5 L 106 162 L 106 164 Q 109.8 162.5 109 165.5 L 107 167.5 L 107 177.5 L 108 179.5 L 107 181.5 L 112 184.5 Q 112.8 186.8 110.5 186 L 107 184 Q 108.1 181.3 105.5 182 L 104.5 184 Q 107.1 183.3 106 186 L 104 186 Q 105.1 183.3 102.5 184 L 101.5 185 L 90.5 186 L 87.5 178 Q 84.9 178.7 86 176 Q 88.7 174.9 88 177.5 L 89 177.5 L 88.5 173 L 86 174 L 87.5 170 Q 90.3 170.6 89 164.5 L 90.5 163 L 97.5 162 L 105 164 L 106 160 Z M 91 164 L 91 183 L 102 183 L 104 182 L 106 178 L 105 168 L 101 164 L 91 164 Z " /><path fill="rgb(2,8,50)" stroke="rgb(2,8,50)" stroke-width="1" opacity="1" d="M 127.5 160 L 127.5 162 L 131.5 160 L 131.5 162 L 133.5 163 L 134.5 161 L 137.5 162 L 139 161.5 Q 136.8 162.8 139.5 164 L 140.5 162 L 141 163.5 L 140.5 165 L 142.5 166 L 144 165.5 L 140 168 L 139.5 170 L 135.5 164 L 131.5 163 L 126.5 164 L 123 167.5 L 123 179.5 L 125.5 183 L 133.5 184 L 138 180.5 L 139.5 176 L 141 179.5 L 140.5 181 L 142 181.5 L 133.5 186 L 126.5 185 L 124 183.5 L 122.5 181 L 121 181.5 L 122 178.5 L 120 178.5 L 121 177.5 L 121 169.5 L 120.5 168 L 122 168.5 L 120 164.5 L 126 162.5 L 124 161.5 L 127.5 160 Z " /><path fill="rgb(2,8,50)" stroke="rgb(2,8,50)" stroke-width="1" opacity="1" d="M 196.5 160 L 203 163.5 L 202 164.5 L 205 167.5 L 205.5 170 L 206.5 168 L 207 169.5 Q 204.8 170.8 206 175.5 L 206.5 177 L 205 177.5 L 208 178.5 L 206 179.5 Q 208.8 181.3 204.5 183 L 199.5 185 L 191.5 185 L 190.5 186 Q 187.5 184.5 190.5 183 L 200.5 183 L 204 179.5 L 204 168.5 L 201.5 165 L 199.5 164 L 189 164 L 189 182.5 L 187 183 L 187 167.5 L 188 166.5 L 186 165.5 L 188 165 L 189.5 162 L 192.5 161 L 192.5 163 Q 195.8 164.1 195 161.5 L 196.5 160 Z " /><path fill="rgb(2,8,50)" stroke="rgb(2,8,50)" stroke-width="1" opacity="1" d="M 152.5 161 L 153.5 163 L 152.5 161 Z " /><path fill="rgb(2,8,50)" stroke="rgb(2,8,50)" stroke-width="1" opacity="1" d="M 156.5 161 L 156.5 163 L 165.5 161 L 169.5 162 L 172.5 165 L 175 164 L 176 166.5 L 173 165.5 L 174 167.5 L 173 168.5 L 173 179.5 L 176 178.5 L 174 182 L 165.5 186 L 158.5 185 L 157 185 L 157 183 Q 154.3 184.1 155 181.5 L 153 181.5 L 152 179.5 Q 155.5 178 153 176.5 L 152 172.5 L 153 170.5 L 152 167.5 L 153.5 165 L 154.5 167 L 156 163.5 Q 153.8 162.3 156.5 161 Z M 162 163 L 159 164 Q 153 168 155 180 L 161 184 L 169 183 L 172 178 L 171 167 L 168 164 Q 163 165 162 163 Z M 154 172 L 153 175 L 154 175 L 154 172 Z " /><path fill="rgb(2,8,50)" stroke="rgb(2,8,50)" stroke-width="1" opacity="1" d="M 227.5 161 Q 229.8 160.3 229 162.5 L 233.5 163 L 236.5 165 L 236.5 166 L 233.5 164 L 221 164 L 221 183 L 235 183 L 234.5 180 L 225 180 L 225 175 L 233.5 175 L 234 173.5 L 237.5 172 L 237.5 173 L 235 173.5 L 238 175.5 L 236.5 175 Q 233.2 173.9 234 176.5 L 232 176.5 Q 231.3 178.8 233.5 178 Q 237 179.3 236 184 L 223.5 186 L 221 185 L 220.5 183 L 219 183.5 L 220 181.5 L 217 179.5 L 220 173.5 L 219 171.5 L 219 169.5 L 220 167.5 L 220 165.5 L 222.5 162 L 227.5 163 L 227.5 161 Z " /><path fill="rgb(2,8,50)" stroke="rgb(2,8,50)" stroke-width="1" opacity="1" d="M 84 162 Q 89.2 160.3 88 164 Q 82.8 165.7 84 162 Z " /><path fill="rgb(2,8,50)" stroke="rgb(2,8,50)" stroke-width="1" opacity="1" d="M 80.5 165 L 84 166.5 L 82.5 169 L 80.5 165 Z " /><path fill="rgb(2,8,50)" stroke="rgb(2,8,50)" stroke-width="1" opacity="1" d="M 94 167 Q 100.1 165.3 102 168.5 L 102 178.5 L 100.5 180 L 94 180 L 94 167 Z M 96 169 L 96 172 L 99 173 L 101 177 L 101 170 L 100 170 L 96 169 Z M 98 174 L 96 178 L 100 179 L 98 174 Z " /><path fill="rgb(2,8,50)" stroke="rgb(2,8,50)" stroke-width="1" opacity="1" d="M 128.5 167 L 134 167 L 134 170 Q 139.2 168.3 138 172 L 132.5 170 L 130.5 170 L 128 172.5 Q 127 178 130.5 179 L 131 177 L 137.5 176 L 137.5 177 L 134 178.5 Q 134.6 181.3 128.5 180 L 127 178.5 L 127 168.5 L 128.5 167 Z " /><path fill="rgb(2,8,50)" stroke="rgb(2,8,50)" stroke-width="1" opacity="1" d="M 160.5 167 Q 165.8 165.8 167 168.5 L 167 180 L 160.5 180 L 159 178.5 L 159 168.5 L 160.5 167 Z M 162 169 L 160 173 L 161 177 Q 160 179 163 178 L 163 176 L 165 177 L 164 176 L 166 175 L 162 169 Z " /><path fill="rgb(2,8,50)" stroke="rgb(2,8,50)" stroke-width="1" opacity="1" d="M 193 167 L 200 168 L 200 178.5 L 198.5 180 L 193 180 L 193 167 Z M 195 170 L 194 176 L 197 177 Q 200 176 199 172 L 195 170 Z " /><path fill="rgb(2,8,50)" stroke="rgb(2,8,50)" stroke-width="1" opacity="1" d="M 225 167 L 234 167.5 L 233.5 170 L 232 169.5 L 230.5 172 L 227.5 171 L 225 172 L 225 167 Z " /><path fill="rgb(2,8,50)" stroke="rgb(2,8,50)" stroke-width="1" opacity="1" d="M 110 168 Q 113 167 112 170 L 110 170 Q 111.1 172.7 108.5 172 L 110 169.5 L 110 168 Z " /><path fill="rgb(2,8,50)" stroke="rgb(2,8,50)" stroke-width="1" opacity="1" d="M 80.5 172 L 81.5 174 Q 78.7 174.7 80.5 172 Z " /><path fill="rgb(2,8,50)" stroke="rgb(2,8,50)" stroke-width="1" opacity="1" d="M 141.5 172 L 143 174.5 L 142.5 177 Q 139.8 175.8 142 174.5 L 141.5 172 Z " /><path fill="rgb(2,8,50)" stroke="rgb(2,8,50)" stroke-width="1" opacity="1" d="M 110 176 Q 114.1 174.7 113 178 Q 108.9 179.3 110 176 Z " /><path fill="rgb(2,8,50)" stroke="rgb(2,8,50)" stroke-width="1" opacity="1" d="M 80 178 Q 83 177 82 180 Q 79 181 80 178 Z " /><path fill="rgb(2,8,50)" stroke="rgb(2,8,50)" stroke-width="1" opacity="1" d="M 142.5 179 L 143.5 181 L 142.5 179 Z " /><path fill="rgb(2,8,50)" stroke="rgb(2,8,50)" stroke-width="1" opacity="1" d="M 84.5 181 Q 87.5 180.2 86 184 L 83 182.5 L 84.5 181 Z " /><path fill="rgb(2,8,50)" stroke="rgb(2,8,50)" stroke-width="1" opacity="1" d="M 175.5 182 L 174.5 184 L 175.5 182 Z " /><path fill="rgb(2,8,50)" stroke="rgb(2,8,50)" stroke-width="1" opacity="1" d="M 80 186 L 83.5 187 L 86 186 L 86 188 L 80 188 L 80 186 Z " /><path fill="rgb(2,8,50)" stroke="rgb(2,8,50)" stroke-width="1" opacity="1" d="M 98.5 186 L 101 187.5 L 98.5 189 Q 95.5 187.5 98.5 186 Z " /><path fill="rgb(2,8,50)" stroke="rgb(2,8,50)" stroke-width="1" opacity="1" d="M 102.5 187 L 103.5 189 Q 100.7 189.7 102.5 187 Z " /><path fill="rgb(2,8,50)" stroke="rgb(2,8,50)" stroke-width="1" opacity="1" d="M 93.5 188 L 96 189.5 Q 94 194 92 190.5 L 93.5 188 Z " /><path fill="rgb(2,8,50)" stroke="rgb(2,8,50)" stroke-width="1" opacity="1" d="M 108.5 188 Q 111.5 189.5 108.5 191 L 108.5 188 Z " /><path fill="rgb(2,8,50)" stroke="rgb(2,8,50)" stroke-width="1" opacity="1" d="M 100 190 Q 103 189 102 192 Q 99 193 100 190 Z " /><path fill="rgb(2,8,50)" stroke="rgb(2,8,50)" stroke-width="1" opacity="1" d="M 104 190 Q 107 189 106 192 Q 103 193 104 190 Z " /><path fill="rgb(1,7,55)" stroke="rgb(1,7,55)" stroke-width="1" opacity="1" d="M 0 0 L 325 0 L 325 260 L 0 260 L 0 0 Z M 83 64 Q 82 67 85 66 L 86 67 Q 87 62 83 64 Z M 137 65 L 132 66 Q 131 69 134 68 Q 135 71 137 67 L 137 65 Z M 141 67 L 139 69 L 140 71 L 139 73 L 141 73 L 143 70 Q 145 71 144 68 L 141 67 Z M 81 68 L 82 70 Q 83 67 81 68 Z M 91 70 L 89 72 Q 86 71 87 74 L 90 75 L 93 74 L 94 72 L 91 70 Z M 133 70 L 135 72 Q 136 69 133 70 Z M 129 73 L 128 75 L 96 75 L 95 74 L 91 76 L 87 81 L 87 142 L 89 144 Q 88 146 91 145 L 91 147 L 95 148 L 94 148 L 94 149 L 97 148 L 129 148 L 130 149 L 139 146 L 142 142 Q 146 143 145 140 L 143 140 L 147 138 L 147 136 L 153 129 Q 154 126 156 128 L 158 124 Q 160 125 159 122 L 162 120 L 166 115 L 166 117 L 169 115 L 167 114 L 173 106 L 169 108 L 173 104 L 174 105 L 179 101 Q 183 102 182 100 L 181 100 L 179 100 L 181 99 L 182 96 L 185 94 L 184 93 L 186 93 L 187 93 L 186 91 L 185 91 L 189 86 L 188 88 Q 189 90 191 88 L 215 88 L 217 89 L 220 92 L 221 91 L 219 95 L 222 94 Q 223 91 225 96 L 223 94 L 220 96 L 223 96 L 225 101 L 227 100 L 227 102 Q 230 101 229 104 L 231 103 L 233 104 L 239 101 L 236 98 L 237 96 L 237 98 L 238 98 L 235 92 L 237 91 L 233 89 Q 234 86 231 87 L 231 85 L 228 84 L 229 82 L 228 81 L 225 82 L 220 78 L 222 75 L 217 76 L 219 76 L 219 77 L 190 77 L 216 76 L 191 75 L 190 74 L 185 75 L 179 82 L 181 82 L 173 88 L 172 87 L 171 87 Q 172 89 170 88 L 169 91 L 171 92 L 174 90 L 171 93 L 169 91 L 166 95 L 167 98 L 164 101 L 163 100 L 162 102 Q 161 105 158 104 L 159 102 Q 158 98 161 99 L 164 100 L 165 99 L 160 94 L 158 95 L 160 98 L 157 98 L 155 93 L 154 93 Q 149 91 152 90 L 150 88 Q 147 87 149 86 L 145 83 L 145 82 L 143 79 L 145 78 L 144 75 L 142 79 L 138 76 L 139 73 Q 134 71 135 75 Q 130 76 129 73 Z M 181 75 L 181 77 L 183 76 L 181 75 Z M 84 76 L 82 78 L 84 81 L 86 78 Q 87 75 84 76 Z M 223 76 L 221 78 L 225 81 L 223 76 Z M 153 80 Q 152 83 157 82 Q 158 78 153 80 Z M 148 82 L 149 84 Q 150 81 148 82 Z M 174 84 L 172 86 L 174 86 L 174 84 Z M 153 86 L 153 88 L 158 89 L 158 86 L 153 86 Z M 185 94 L 185 96 L 187 95 L 185 94 Z M 172 114 L 170 116 L 171 118 L 166 121 L 167 124 L 166 123 L 165 125 L 165 127 Q 167 130 169 126 L 172 130 L 169 129 L 171 132 Q 170 134 173 133 L 176 138 Q 175 140 178 139 L 179 143 L 181 142 L 188 147 L 191 146 L 193 146 L 216 146 L 217 147 L 219 147 L 218 145 L 185 145 L 220 144 L 221 143 L 219 146 L 221 146 L 224 142 L 222 142 L 226 138 L 228 140 L 230 136 Q 232 137 231 134 L 233 134 Q 231 130 230 134 L 233 130 L 232 132 L 235 133 L 238 126 L 238 123 L 237 125 L 236 124 L 236 122 L 238 122 L 239 120 Q 235 121 236 118 L 232 117 L 229 119 Q 226 118 227 121 L 222 124 L 224 124 L 226 125 L 219 130 Q 216 129 217 132 L 216 131 L 213 133 L 210 132 L 209 133 L 193 133 L 192 134 L 187 131 Q 185 134 183 130 L 186 131 L 183 125 L 181 125 L 183 124 L 180 123 L 179 124 L 173 119 L 179 123 L 176 119 Q 177 116 174 117 L 174 115 L 172 114 Z M 164 119 L 162 121 Q 161 123 164 122 L 164 119 Z M 161 123 Q 158 127 162 126 L 161 123 Z M 85 127 L 84 128 Q 81 127 82 130 L 85 129 L 85 127 Z M 156 130 L 156 133 L 159 134 L 160 135 L 160 132 L 156 130 Z M 82 134 L 82 139 L 84 139 L 84 134 L 82 134 Z M 150 135 L 151 140 L 154 142 L 154 137 L 150 135 Z M 84 142 Q 83 145 86 144 Q 87 141 84 142 Z M 147 142 L 148 144 L 149 144 L 147 142 Z M 139 154 Q 138 157 143 156 Q 144 152 139 154 Z M 90 159 L 89 162 L 91 162 L 93 162 L 93 161 L 90 159 Z M 103 160 L 104 162 Q 105 159 103 160 Z M 106 160 L 106 162 L 109 161 L 106 160 Z M 197 160 L 195 162 Q 196 164 193 163 L 193 161 L 190 162 L 188 165 L 186 166 L 188 166 L 187 168 L 187 183 L 190 183 L 191 186 L 192 185 L 200 185 L 205 183 L 203 180 L 204 178 L 206 182 Q 208 181 206 180 L 208 179 L 205 178 L 207 177 L 205 168 Q 204 165 203 167 L 202 164 L 200 165 L 200 162 L 197 160 Z M 125 161 L 126 163 L 121 170 L 122 181 L 126 183 L 125 182 L 124 184 L 127 185 L 134 186 L 140 183 L 139 182 L 138 181 L 135 183 Q 137 178 139 181 L 141 180 L 140 176 L 139 179 L 136 178 L 134 179 L 138 177 L 138 176 L 134 177 Q 130 176 131 179 Q 129 177 128 180 L 126 179 L 127 169 L 127 179 L 129 178 L 128 173 L 131 170 L 133 170 Q 135 171 134 169 L 136 169 L 139 168 L 140 170 L 140 168 L 142 168 L 140 167 L 142 166 L 139 163 L 136 165 L 139 166 Q 137 169 135 165 L 138 163 L 135 161 L 134 163 L 132 162 L 132 164 Q 130 161 125 161 Z M 166 161 L 156 163 L 155 167 L 154 165 L 152 168 L 154 173 L 153 177 L 154 180 L 153 182 L 155 182 Q 154 184 157 183 L 157 185 L 159 185 L 166 186 L 172 183 L 171 181 L 168 183 L 173 180 L 173 169 L 172 168 L 173 166 Q 171 161 170 164 L 170 163 L 166 161 Z M 228 161 L 228 163 L 223 162 Q 220 163 222 165 L 222 183 L 221 185 L 224 186 L 236 184 L 236 180 L 235 183 L 234 183 L 235 180 L 233 178 L 231 179 L 232 177 L 234 177 L 233 175 L 235 175 L 237 175 L 231 172 L 235 165 Q 236 162 234 163 L 229 163 Q 230 160 228 161 Z M 84 162 Q 83 166 88 164 Q 89 160 84 162 Z M 97 162 Q 95 164 91 163 Q 87 165 89 170 L 86 172 Q 85 175 88 174 L 89 174 L 88 179 Q 90 180 89 185 L 91 186 L 102 185 L 107 182 L 108 180 L 107 178 Q 105 167 109 164 L 106 165 L 103 163 L 97 162 Z M 174 164 L 175 166 Q 176 163 174 164 Z M 221 164 L 220 166 L 220 168 L 219 170 L 219 172 L 220 174 L 218 179 L 220 178 L 218 181 L 220 182 L 219 184 L 221 183 L 221 164 Z M 81 165 L 83 169 L 84 167 L 81 165 Z M 110 168 Q 109 171 112 170 Q 113 167 110 168 Z M 110 170 L 108 172 L 110 172 L 110 170 Z M 135 170 Q 134 172 138 172 Q 139 169 135 170 Z M 81 172 Q 79 175 82 174 L 81 172 Z M 153 172 L 152 175 L 153 175 L 153 172 Z M 236 172 L 236 173 L 238 173 L 236 172 Z M 86 176 Q 85 179 88 178 Q 89 175 86 176 Z M 110 176 Q 109 179 113 178 Q 114 175 110 176 Z M 80 178 Q 79 181 82 180 Q 83 177 80 178 Z M 174 180 L 172 182 L 174 182 L 174 180 Z M 85 181 L 83 183 L 86 184 Q 87 180 85 181 Z M 108 182 L 107 184 L 111 186 Q 113 187 112 185 L 108 182 Z M 104 184 Q 103 187 106 186 Q 107 183 104 184 Z M 80 186 L 80 188 L 86 188 L 86 186 L 84 187 L 80 186 Z M 99 186 Q 96 188 99 189 L 101 188 L 99 186 Z M 103 187 Q 101 190 104 189 L 103 187 Z M 94 188 L 92 191 Q 94 194 96 190 L 94 188 Z M 109 188 L 109 191 Q 112 190 109 188 Z M 100 190 Q 99 193 102 192 Q 103 189 100 190 Z M 104 190 Q 103 193 106 192 Q 107 189 104 190 Z " /><path fill="rgb(1,7,55)" stroke="rgb(1,7,55)" stroke-width="1" opacity="1" d="M 186.5 76 L 189 76.5 L 186.5 77 L 186.5 76 Z " /><path fill="rgb(1,7,55)" stroke="rgb(1,7,55)" stroke-width="1" opacity="1" d="M 227.5 85 L 231.5 90 L 227.5 85 Z " /><path fill="rgb(1,7,55)" stroke="rgb(1,7,55)" stroke-width="1" opacity="1" d="M 216.5 86 L 217.5 88 L 216.5 86 Z " /><path fill="rgb(1,7,55)" stroke="rgb(1,7,55)" stroke-width="1" opacity="1" d="M 99 87 L 131.5 87 L 139 94.5 Q 138.4 99.6 141.5 101 Q 145.9 99.5 145 102.5 Q 142.8 103.8 145.5 105 L 147 105.5 L 146.5 107 L 148.5 106 L 152 108 L 153 110.5 L 142.5 122 L 142 120 Q 139.3 118.9 140 121.5 L 140.5 125 Q 138.3 124.3 139 126.5 L 133 131 Q 134.3 134.3 129.5 133 L 127.5 133 L 110 132.5 L 112 132 Q 113.1 128.7 109 130 Q 110.5 134.5 106 133 L 104.5 129 L 101.5 133 L 99 132.5 L 100 129.5 L 99 127.5 L 99 94.5 L 102 92.5 L 100 92 L 99 87 Z M 103 88 L 101 90 L 104 90 Q 105 87 103 88 Z M 107 90 L 105 92 L 109 92 Q 110 89 107 90 Z M 128 90 Q 127 93 130 92 Q 131 89 128 90 Z M 133 91 L 134 93 L 135 93 L 133 91 Z M 108 94 L 108 97 L 111 96 L 108 94 Z M 130 94 Q 129 98 132 98 L 132 103 L 134 103 L 133 97 Q 134 92 130 94 Z M 138 106 L 137 108 L 143 108 L 142 106 L 138 106 Z M 128 110 L 128 115 L 130 115 L 130 110 L 128 110 Z M 149 110 L 146 111 Q 145 115 148 114 L 149 112 L 149 110 Z M 135 112 Q 134 115 138 114 Q 139 111 135 112 Z M 144 114 L 144 116 L 146 115 L 144 114 Z M 133 115 L 130 117 L 134 122 Q 137 123 136 120 L 139 120 L 139 118 L 134 118 L 133 115 Z M 128 124 L 128 129 L 128 131 L 130 132 L 130 125 L 128 124 Z M 133 126 L 133 128 Q 135 131 136 128 Q 137 124 133 126 Z " /><path fill="rgb(1,7,55)" stroke="rgb(1,7,55)" stroke-width="1" opacity="1" d="M 179.5 96 L 177.5 99 L 179.5 96 Z " /><path fill="rgb(1,7,55)" stroke="rgb(1,7,55)" stroke-width="1" opacity="1" d="M 235.5 99 L 234.5 101 L 235.5 99 Z " /><path fill="rgb(1,7,55)" stroke="rgb(1,7,55)" stroke-width="1" opacity="1" d="M 230.5 101 L 233 101.5 L 230.5 102 L 230.5 101 Z " /><path fill="rgb(1,7,55)" stroke="rgb(1,7,55)" stroke-width="1" opacity="1" d="M 155.5 106 L 154.5 108 L 155.5 106 Z " /><path fill="rgb(1,7,55)" stroke="rgb(1,7,55)" stroke-width="1" opacity="1" d="M 164.5 113 L 161.5 117 L 164.5 113 Z " /><path fill="rgb(1,7,55)" stroke="rgb(1,7,55)" stroke-width="1" opacity="1" d="M 218.5 132 L 216.5 135 L 218.5 132 Z " /><path fill="rgb(1,7,55)" stroke="rgb(1,7,55)" stroke-width="1" opacity="1" d="M 176.5 135 L 178.5 138 L 176.5 135 Z " /><path fill="rgb(1,7,55)" stroke="rgb(1,7,55)" stroke-width="1" opacity="1" d="M 169.5 165 L 170.5 167 L 169.5 165 Z " /><path fill="rgb(1,7,55)" stroke="rgb(1,7,55)" stroke-width="1" opacity="1" d="M 166.5 167 L 168 168.5 L 168 178.5 L 167 178.5 L 167 168.5 L 166.5 167 Z " /><path fill="rgb(1,7,55)" stroke="rgb(1,7,55)" stroke-width="1" opacity="1" d="M 192.5 167 L 193 179.5 L 192 179.5 L 192.5 167 Z " /><path fill="rgb(1,7,55)" stroke="rgb(1,7,55)" stroke-width="1" opacity="1" d="M 155.5 168 L 156 179.5 L 155 179.5 L 155.5 168 Z " /><path fill="rgb(1,7,55)" stroke="rgb(1,7,55)" stroke-width="1" opacity="1" d="M 96 169 L 99.5 170 L 101 169.5 L 100.5 177 L 99.5 175 L 98 176.5 L 99.5 179 L 96 177.5 L 97.5 174 L 99 174.5 Q 99.8 172.3 97.5 173 L 96 169 Z " /><path fill="rgb(1,7,55)" stroke="rgb(1,7,55)" stroke-width="1" opacity="1" d="M 161.5 169 L 166 174.5 L 164 175.5 L 165.5 178 L 163.5 177 L 161 178 L 160 172.5 L 161.5 169 Z " /><path fill="rgb(1,7,55)" stroke="rgb(1,7,55)" stroke-width="1" opacity="1" d="M 171.5 169 L 172 177.5 L 171 177.5 L 171.5 169 Z " /><path fill="rgb(1,7,55)" stroke="rgb(1,7,55)" stroke-width="1" opacity="1" d="M 195 170 L 199 171.5 Q 199.8 176.3 196.5 177 L 194 176 L 195 170 Z " /><path fill="rgb(1,7,55)" stroke="rgb(1,7,55)" stroke-width="1" opacity="1" d="M 225.5 174 L 231 174.5 L 225.5 175 L 225.5 174 Z " /><path fill="rgb(1,7,55)" stroke="rgb(1,7,55)" stroke-width="1" opacity="1" d="M 129.5 180 L 133 180.5 L 129.5 181 L 129.5 180 Z " /><path fill="rgb(1,7,55)" stroke="rgb(1,7,55)" stroke-width="1" opacity="1" d="M 161.5 180 L 165 180.5 L 161.5 181 L 161.5 180 Z " /><path fill="rgb(1,7,55)" stroke="rgb(1,7,55)" stroke-width="1" opacity="1" d="M 127.5 183 L 134 183.5 L 127.5 184 L 127.5 183 Z " /><path fill="rgb(1,7,55)" stroke="rgb(1,7,55)" stroke-width="1" opacity="1" d="M 160.5 183 L 167 183.5 L 160.5 184 L 160.5 183 Z " /><path fill="rgb(56,179,151)" stroke="rgb(56,179,151)" stroke-width="1" opacity="1" d="M 184.5 77 L 219.5 77 L 227 84.5 L 235 93.5 L 236 98.5 Q 235 102 229.5 101 L 216.5 86 L 188.5 86 L 184 90.5 L 160.5 117 Q 161.1 112.4 158.5 111 L 155.5 112 L 155 110.5 L 184.5 77 Z " /><path fill="rgb(56,179,151)" stroke="rgb(56,179,151)" stroke-width="1" opacity="1" d="M 170.5 115 L 188.5 135 L 216.5 135 L 219 132.5 L 229.5 120 Q 235 119 236 122.5 L 235 127.5 L 222 143 L 219.5 144 L 184.5 144 L 165 121.5 L 171 117.5 L 170.5 115 Z " /><path fill="rgb(56,179,151)" stroke="rgb(56,179,151)" stroke-width="1" opacity="1" d="M 127.5 164 Q 136.3 162.3 138 167.5 Q 138.8 170.1 135.5 169 L 131.5 166 L 127 167 Q 124.9 170.3 126 178.5 Q 127.4 181.6 132.5 181 Q 133.8 177.3 138 178 L 134.5 183 Q 126 185 124 180.5 Q 121.3 176.7 123 168.5 L 125.5 165 L 127.5 164 Z " /><path fill="rgb(56,179,151)" stroke="rgb(56,179,151)" stroke-width="1" opacity="1" d="M 159.5 164 Q 169 162 171 167.5 L 171 179.5 L 167.5 183 L 158.5 183 L 156 180.5 L 156 167.5 L 157 165 L 159.5 164 Z M 162 166 L 159 169 L 159 180 L 162 181 L 167 180 L 168 179 L 168 169 L 166 167 L 164 167 L 162 166 Z " /><path fill="rgb(56,179,151)" stroke="rgb(56,179,151)" stroke-width="1" opacity="1" d="M 189 164 L 198.5 164 L 203 167.5 L 204 172.5 L 203 174.5 L 204 177.5 L 201.5 182 L 199.5 183 L 189 183 L 189 164 Z M 192 167 L 192 180 L 199 180 L 200 179 L 200 169 L 199 167 L 192 167 Z " /><path fill="rgb(56,179,151)" stroke="rgb(56,179,151)" stroke-width="1" opacity="1" d="M 222 164 L 233.5 164 L 234 167 L 225 167 L 225 172 L 232.5 172 L 234 173.5 L 231.5 175 L 225 174 L 225 180 L 234 180 L 234 183 L 222 183 L 222 164 Z " /><path fill="rgb(228,127,42)" stroke="rgb(228,127,42)" stroke-width="1" opacity="1" d="M 91.5 77 L 136.5 77 L 140 79.5 L 158 100.5 L 151.5 106 L 133.5 86 L 98 86 L 98 135 L 133.5 135 L 138 130.5 L 154.5 111 L 156.5 111 L 160 112.5 L 161 117.5 L 137.5 144 L 91.5 144 L 89 141.5 L 89 80.5 L 91.5 77 Z " /><path fill="rgb(228,127,42)" stroke="rgb(228,127,42)" stroke-width="1" opacity="1" d="M 91 164 L 100.5 164 L 105 167.5 L 106 177.5 L 104 182 L 101.5 183 L 91 183 L 91 164 Z M 94 167 L 94 180 L 101 180 L 102 179 L 102 169 Q 100 165 94 167 Z " /></svg>