<?xml version="1.0" encoding="UTF-8"?>
<svg version="1.1" xmlns="http://www.w3.org/2000/svg" width="833" height="233">
<path d="M0 0 C0.69722168 0.21430664 1.39444336 0.42861328 2.11279297 0.64941406 C30.64011948 9.75430294 55.10251711 30.40905238 69.23266602 56.76538086 C72.46585829 63.07270506 75.0868666 69.5447743 77.375 76.25 C77.73319824 77.29365723 77.73319824 77.29365723 78.09863281 78.35839844 C81.63485416 89.33552549 82.36428343 100.27522857 82.3125 111.75 C82.31001251 112.41085602 82.30752502 113.07171204 82.30496216 113.75259399 C82.11235892 146.86784447 68.86830055 174.77853733 45.52050781 197.96728516 C24.23953508 218.29546367 -4.15647311 228.38359855 -33.25 228.3125 C-34.55324219 228.32861328 -35.85648437 228.34472656 -37.19921875 228.36132812 C-67.60865 228.37639722 -94.17663709 215.58049132 -116 195 C-116.67675781 194.38769531 -117.35351562 193.77539062 -118.05078125 193.14453125 C-132.58923988 179.48012825 -141.6476408 160.97654625 -147 142 C-147.3196875 140.9378125 -147.639375 139.875625 -147.96875 138.78125 C-155.52412257 108.83958832 -148.81551599 77.42767717 -134 51 C-129.08941022 43.34791531 -123.2258335 36.60181634 -117 30 C-116.38769531 29.32324219 -115.77539062 28.64648438 -115.14453125 27.94921875 C-101.48012825 13.41076012 -82.97654625 4.3523592 -64 -1 C-62.9378125 -1.3196875 -61.875625 -1.639375 -60.78125 -1.96875 C-41.56208113 -6.81844682 -18.9031137 -5.83753029 0 0 Z M-99 35 C-99.70253906 35.53882812 -100.40507813 36.07765625 -101.12890625 36.6328125 C-118.25767191 50.40503216 -130.52391743 73.46864269 -133.69140625 95.0859375 C-136.75062144 123.97422272 -131.60936601 151.13641121 -113.203125 174.33203125 C-112.47609375 175.21246094 -111.7490625 176.09289062 -111 177 C-110.37609375 177.78761719 -109.7521875 178.57523438 -109.109375 179.38671875 C-94.25496621 197.26818143 -70.09661655 209.90985323 -46.99414062 212.19873047 C-17.08715368 214.89346114 9.40906706 206.95904941 32.61328125 187.84765625 C52.53630561 170.64553051 64.62535276 145.99187726 66.72875977 119.85180664 C68.36292048 92.87315006 60.17840918 67.80293168 43 47 C42.37609375 46.21238281 41.7521875 45.42476562 41.109375 44.61328125 C25.61037767 25.9558748 0.95223983 13.90299585 -23.0078125 11.59765625 C-51.16866424 9.25451081 -77.11914426 17.03466581 -99 35 Z " fill="#97AD4C" transform="translate(150,4)"/>
<path d="M0 0 C3.65301857 2.83941244 6.62842088 6.06266527 9.73803711 9.4753418 C17.10108447 17.43823334 24.6397159 25.2048624 32.29736328 32.88427734 C34.40130717 34.9981303 36.49433554 37.12244928 38.58764648 39.24682617 C39.95092367 40.61661909 41.31483239 41.98578385 42.67944336 43.35424805 C43.2910582 43.97820969 43.90267303 44.60217133 44.53282166 45.24504089 C51.18230036 51.86079032 57.52284649 56.37874025 67.12084961 56.5925293 C74.68291991 56.52523612 78.92501302 54.7413956 84.68334961 50.0300293 C89.23355243 44.4686703 92.04718181 38.56529021 91.93334961 31.2800293 C91.19670311 24.54497557 88.24214739 18.39930167 83.29663086 13.73706055 C76.86099108 8.8054804 70.57390689 7.77546089 62.62866211 8.76049805 C51.63049496 10.88043461 44.54653944 19.80119188 37.93334961 28.2800293 C34.71810656 26.87158212 32.61151093 25.17658144 30.18334961 22.6550293 C29.56975586 22.02338867 28.95616211 21.39174805 28.32397461 20.7409668 C27.63561523 20.01780273 27.63561523 20.01780273 26.93334961 19.2800293 C31.62130358 9.03886695 42.34262264 0.68001048 52.40991211 -3.80200195 C62.15765998 -7.34800931 73.1191131 -6.87348167 82.63256836 -2.85668945 C93.22785069 2.37799163 99.63901214 10.5139438 103.93334961 21.2800293 C106.78149403 29.82446256 105.68655677 40.72533565 102.19116211 48.8894043 C96.56938905 59.5742649 88.43995476 66.64018481 76.93334961 70.2800293 C66.47018757 73.43158413 55.71443844 70.94381616 46.24584961 66.0925293 C41.48444483 63.02356929 37.9372596 59.2677948 34.15209961 55.1159668 C26.65990956 47.01769547 19.01983451 39.08258705 11.25195312 31.24853516 C9.81693756 29.79675117 8.3873365 28.33959747 6.96289062 26.87744141 C4.85454379 24.71409629 2.72998613 22.56789157 0.60131836 20.42456055 C-0.02184769 19.77872513 -0.64501373 19.13288971 -1.2870636 18.46748352 C-6.73629698 13.04364696 -12.94868279 9.01180941 -20.60571289 7.65112305 C-29.08368645 7.83356045 -34.27029538 9.17392065 -40.81665039 14.5300293 C-45.60910526 20.38747414 -48.55290548 26.66223116 -47.88305664 34.40112305 C-46.62237121 41.90025185 -42.96043903 47.87880043 -37.12915039 52.7175293 C-30.06978016 56.3192488 -23.44955352 57.34414558 -15.75415039 55.3425293 C-6.69110035 52.06933235 -0.03146151 43.52865737 5.93334961 36.2800293 C9.14859266 37.68847647 11.25518829 39.38347715 13.68334961 41.9050293 C14.29694336 42.53666992 14.91053711 43.16831055 15.54272461 43.8190918 C16.23108398 44.54225586 16.23108398 44.54225586 16.93334961 45.2800293 C12.24539564 55.52119165 1.52407658 63.88004811 -8.54321289 68.36206055 C-18.28970972 71.9076128 -29.271146 71.44316391 -38.77758789 67.4050293 C-49.49505425 62.13774208 -56.03491366 54.42354198 -60.06665039 43.2800293 C-62.86657676 34.61102651 -61.8190546 23.96488171 -58.32836914 15.7097168 C-52.63635511 4.74862476 -44.14879609 -1.61145313 -32.81665039 -5.9699707 C-21.14672643 -8.30395549 -10.03423843 -6.46330576 0 0 Z " fill="#97AD4C" transform="translate(94.066650390625,83.719970703125)"/>
<path d="M0 0 C4.62 0 9.24 0 14 0 C15.89844707 11.64380869 17.62619435 23.28224589 19 35 C20.37147211 30.4139808 21.4620885 25.91386304 22.2890625 21.19140625 C22.50820313 19.95068359 22.72734375 18.70996094 22.953125 17.43164062 C23.28570313 15.51641602 23.28570313 15.51641602 23.625 13.5625 C23.85643141 12.24538302 24.08819934 10.92832513 24.3203125 9.61132812 C24.88351196 6.40813119 25.44220251 3.20414204 26 0 C30.62 0 35.24 0 40 0 C41.37147211 4.5860192 42.4620885 9.08613696 43.2890625 13.80859375 C43.50820313 15.04931641 43.72734375 16.29003906 43.953125 17.56835938 C44.17484375 18.84517578 44.3965625 20.12199219 44.625 21.4375 C44.85643141 22.75461698 45.08819934 24.07167487 45.3203125 25.38867188 C45.88351455 28.59188352 46.44330308 31.79565253 47 35 C49.01014891 32.98985109 48.80199164 29.22472925 49.19140625 26.46484375 C49.30097153 25.71159317 49.4105368 24.95834259 49.52342224 24.18226624 C49.87368959 21.76789052 50.21815231 19.3527264 50.5625 16.9375 C50.7984473 15.30398141 51.03477049 13.67051706 51.27148438 12.03710938 C51.85202571 8.02535689 52.42736132 4.01288782 53 0 C57.62 0 62.24 0 67 0 C66.33675809 6.77218602 65.26398813 13.37671255 63.96875 20.0546875 C63.67478333 21.58973434 63.67478333 21.58973434 63.37487793 23.15579224 C62.96301252 25.30242441 62.54945388 27.44873233 62.13427734 29.59472656 C61.49801549 32.88526323 60.86774817 36.17690745 60.23828125 39.46875 C59.83628874 41.55996338 59.43395703 43.6511116 59.03125 45.7421875 C58.84268433 46.72653778 58.65411865 47.71088806 58.45983887 48.72506714 C58.28295532 49.63676666 58.10607178 50.54846619 57.92382812 51.48779297 C57.76918091 52.28893524 57.61453369 53.09007751 57.4552002 53.91549683 C57 56 57 56 56 59 C50.39 59 44.78 59 39 59 C38.47599609 55.87724609 38.47599609 55.87724609 37.94140625 52.69140625 C37.60146926 50.68237051 37.26015338 48.67357362 36.91870117 46.66479492 C36.68157844 45.26529951 36.4458969 43.86555914 36.21166992 42.46557617 C35.87534365 40.45686216 35.53389604 38.44907732 35.19140625 36.44140625 C34.98717041 35.23170166 34.78293457 34.02199707 34.57250977 32.77563477 C34.28638332 30.1031547 34.28638332 30.1031547 33 29 C32.85377197 29.87325928 32.70754395 30.74651855 32.55688477 31.64624023 C32.01402996 34.87645244 31.46759866 38.10601647 30.91870117 41.33520508 C30.68157844 42.73470049 30.4458969 44.13444086 30.21166992 45.53442383 C29.87534365 47.54313784 29.53389604 49.55092268 29.19140625 51.55859375 C28.98717041 52.76829834 28.78293457 53.97800293 28.57250977 55.22436523 C28 58 28 58 27 59 C24.30345146 59.07319621 21.63308542 59.09242537 18.9375 59.0625 C17.79958008 59.05573242 17.79958008 59.05573242 16.63867188 59.04882812 C14.75908129 59.0370068 12.87953101 59.01907078 11 59 C8.49715606 48.6477093 6.39574024 38.22840079 4.35571289 27.77685547 C3.80790837 24.97652801 3.25268873 22.17773132 2.69726562 19.37890625 C2.3459026 17.58602594 1.99497513 15.7930602 1.64453125 14 C1.39616264 12.75464478 1.39616264 12.75464478 1.14277649 11.48413086 C0.99229355 10.70561768 0.84181061 9.92710449 0.68676758 9.125 C0.55369705 8.44695312 0.42062653 7.76890625 0.28352356 7.0703125 C0 5 0 5 0 0 Z " fill="#E1E1E1" transform="translate(688,61)"/>
<path d="M0 0 C16.17 0 32.34 0 49 0 C50.95659851 5.21759604 52.66793408 10.10831009 54.125 15.4375 C54.9548953 19.53008424 54.9548953 19.53008424 57 23 C57.176521 22.3387915 57.35304199 21.67758301 57.53491211 20.99633789 C58.33227353 18.01744177 59.13481489 15.03996581 59.9375 12.0625 C60.21529297 11.02158203 60.49308594 9.98066406 60.77929688 8.90820312 C61.18051758 7.42416992 61.18051758 7.42416992 61.58984375 5.91015625 C61.83597412 4.99371338 62.08210449 4.07727051 62.33569336 3.13305664 C63 1 63 1 64 0 C66.18639453 -0.07258946 68.37500389 -0.08373783 70.5625 -0.0625 C72.35880859 -0.04896484 72.35880859 -0.04896484 74.19140625 -0.03515625 C75.11824219 -0.02355469 76.04507813 -0.01195312 77 0 C76.44542592 4.94025239 75.36769739 9.11370702 73.53125 13.7265625 C73.03553367 15.0089196 72.54187607 16.29207402 72.05004883 17.57592773 C71.7955899 18.23777069 71.54113098 18.89961365 71.27896118 19.58151245 C66.22092148 32.85051916 63.31164199 44.64053171 64 59 C59.38 59 54.76 59 50 59 C50.07863281 58.03449219 50.15726563 57.06898437 50.23828125 56.07421875 C50.81947594 38.01857999 42.64210887 21.42279665 36 5 C35.67 6.98 35.34 8.96 35 11 C31.7 11 28.4 11 25 11 C25 26.84 25 42.68 25 59 C20.38 59 15.76 59 11 59 C11 43.16 11 27.32 11 11 C7.37 11 3.74 11 0 11 C0 7.37 0 3.74 0 0 Z " fill="#E1E1E1" transform="translate(467,61)"/>
<path d="M0 0 C4.29 0 8.58 0 13 0 C16.3 9.24 19.6 18.48 23 28 C23.33 18.76 23.66 9.52 24 0 C28.29 0 32.58 0 37 0 C37 19.47 37 38.94 37 59 C32.71 59 28.42 59 24 59 C20.7 49.76 17.4 40.52 14 31 C13.67 40.24 13.34 49.48 13 59 C8.71 59 4.42 59 0 59 C0 39.53 0 20.06 0 0 Z " fill="#E1E1E1" transform="translate(405,61)"/>
<path d="M0 0 C3.96 0 7.92 0 12 0 C14.86058737 6.27177452 17.40667701 12.58163978 19.75 19.0625 C20.8225 22.011875 21.895 24.96125 23 28 C23.33 18.76 23.66 9.52 24 0 C28.29 0 32.58 0 37 0 C37 19.47 37 38.94 37 59 C32.71 59 28.42 59 24 59 C20.7 50.09 17.4 41.18 14 32 C13.67 40.91 13.34 49.82 13 59 C8.71 59 4.42 59 0 59 C0 39.53 0 20.06 0 0 Z " fill="#E1E1E1" transform="translate(303,61)"/>
<path d="M0 0 C26 0 26 0 33 3 C37.21828646 7.40767891 36.44255718 13.265146 36.375 19 C36.38660156 19.98484375 36.39820313 20.9696875 36.41015625 21.984375 C36.38042503 29.31807538 35.26834807 32.73165193 30 38 C32.97 44.93 35.94 51.86 39 59 C34.05 59 29.1 59 24 59 C15 41.5 15 41.5 15 37 C14.34 37 13.68 37 13 37 C13 44.26 13 51.52 13 59 C8.71 59 4.42 59 0 59 C0 39.53 0 20.06 0 0 Z M13 11 C13 16.28 13 21.56 13 27 C15.97 27 18.94 27 22 27 C22 21.72 22 16.44 22 11 C19.03 11 16.06 11 13 11 Z " fill="#E1E1E1" transform="translate(606,61)"/>
<path d="M0 0 C0.73347656 -0.00773437 1.46695313 -0.01546875 2.22265625 -0.0234375 C7.35709687 -0.00506741 12.1979272 0.34483631 16.3125 3.75 C18.44109324 6.43874935 18.63554303 8.26100078 18.67700195 11.62036133 C18.69625481 12.97735893 18.69625481 12.97735893 18.71589661 14.36177063 C18.72328354 15.34195663 18.73067047 16.32214264 18.73828125 17.33203125 C18.746353 18.33836105 18.75442474 19.34469086 18.76274109 20.3815155 C18.77658717 22.51417311 18.78730697 24.64685294 18.79516602 26.77954102 C18.81237593 30.0390022 18.85625753 33.29744847 18.90039062 36.55664062 C18.91051767 38.6275967 18.91903374 40.69856141 18.92578125 42.76953125 C18.94328934 43.74364456 18.96079742 44.71775787 18.97883606 45.72138977 C18.96499003 50.04771475 18.90897775 52.56228978 16.66088867 56.3425293 C12.08156196 60.384816 6.40289757 59.47025535 0.625 59.5 C-0.86580078 59.5309375 -0.86580078 59.5309375 -2.38671875 59.5625 C-11.61963005 59.61193995 -11.61963005 59.61193995 -15.5 56.25 C-17.59611165 53.10583252 -17.75387998 52.35336508 -17.7746582 48.76611328 C-17.78419022 47.86152374 -17.79372223 46.9569342 -17.80354309 46.02493286 C-17.80263168 45.04990814 -17.80172028 44.07488342 -17.80078125 43.0703125 C-17.80506638 42.06539764 -17.8093515 41.06048279 -17.81376648 40.02511597 C-17.81951151 37.89842482 -17.82000878 35.77171402 -17.81567383 33.64501953 C-17.81251894 30.39451432 -17.83595368 27.14492356 -17.86132812 23.89453125 C-17.86360163 21.82812615 -17.86430438 19.7617186 -17.86328125 17.6953125 C-17.872491 16.72433624 -17.88170074 15.75335999 -17.89118958 14.75296021 C-17.83243134 6.160198 -17.83243134 6.160198 -14.5 2.25 C-9.77103742 -0.05884644 -5.14967855 -0.05430241 0 0 Z M-3.5 11.25 C-3.52464928 16.50105442 -3.54283568 21.75207545 -3.55493164 27.00317383 C-3.55997218 28.79094021 -3.56680454 30.57870245 -3.57543945 32.36645508 C-3.5875173 34.93051168 -3.59323094 37.49451397 -3.59765625 40.05859375 C-3.60281754 40.8627623 -3.60797882 41.66693085 -3.61329651 42.49546814 C-3.61349215 44.41401715 -3.56201983 46.33245368 -3.5 48.25 C-2.38163776 49.59404775 -2.38163776 49.59404775 0.5 49.375 C3.38163776 49.59404775 3.38163776 49.59404775 4.5 48.25 C4.58858646 45.51105915 4.61523479 42.7974673 4.59765625 40.05859375 C4.59553383 38.82883568 4.59553383 38.82883568 4.59336853 37.57423401 C4.58775289 34.94528618 4.57519779 32.31642227 4.5625 29.6875 C4.55748701 27.90950643 4.55292376 26.13151154 4.54882812 24.35351562 C4.53777839 19.98564455 4.52050331 15.61783652 4.5 11.25 C1.86 11.25 -0.78 11.25 -3.5 11.25 Z " fill="#E1E1E1" transform="translate(665.5,60.75)"/>
<path d="M0 0 C4.62 0 9.24 0 14 0 C14 8.25 14 16.5 14 25 C17.63 25 21.26 25 25 25 C25 16.75 25 8.5 25 0 C29.29 0 33.58 0 38 0 C38 19.47 38 38.94 38 59 C33.71 59 29.42 59 25 59 C25 51.08 25 43.16 25 35 C21.37 35 17.74 35 14 35 C14 42.92 14 50.84 14 59 C9.38 59 4.76 59 0 59 C0 39.53 0 20.06 0 0 Z " fill="#E2E2E2" transform="translate(794,61)"/>
<path d="M0 0 C1.10118164 -0.0309375 1.10118164 -0.0309375 2.22460938 -0.0625 C7.45295606 -0.09961337 11.07049851 0.74546687 15.6875 3.25 C19.08798255 8.35072383 17.79770139 14.24402433 17.6875 20.25 C13.0675 20.25 8.4475 20.25 3.6875 20.25 C3.6875 16.95 3.6875 13.65 3.6875 10.25 C1.3775 10.25 -0.9325 10.25 -3.3125 10.25 C-3.3125 23.12 -3.3125 35.99 -3.3125 49.25 C-1.0025 49.25 1.3075 49.25 3.6875 49.25 C3.6875 45.29 3.6875 41.33 3.6875 37.25 C2.3675 37.25 1.0475 37.25 -0.3125 37.25 C-0.3125 33.95 -0.3125 30.65 -0.3125 27.25 C5.6275 27.25 11.5675 27.25 17.6875 27.25 C17.7954196 31.4798487 17.87479193 35.70694493 17.9375 39.9375 C17.98777344 41.73477539 17.98777344 41.73477539 18.0390625 43.56835938 C18.05195312 44.72529297 18.06484375 45.88222656 18.078125 47.07421875 C18.09907227 48.13729248 18.12001953 49.20036621 18.14160156 50.2956543 C17.57669206 53.97090694 16.24243697 55.60271234 13.6875 58.25 C9.72144419 60.23302791 4.79873757 59.56628077 0.4375 59.625 C-0.60019531 59.66238281 -1.63789062 59.69976562 -2.70703125 59.73828125 C-3.71636719 59.74988281 -4.72570312 59.76148438 -5.765625 59.7734375 C-7.14476074 59.8031665 -7.14476074 59.8031665 -8.55175781 59.83349609 C-12.44777056 59.01005513 -15.09215575 57.53147924 -17.3125 54.25 C-18.1833 50.643216 -18.1302301 47.13354749 -18.07421875 43.4375 C-18.07758743 42.39102295 -18.08095612 41.3445459 -18.08442688 40.26635742 C-18.08412834 38.05740435 -18.06890836 35.84840967 -18.03979492 33.63964844 C-18.0001301 30.26108196 -18.0190876 26.88644326 -18.04492188 23.5078125 C-18.0373624 21.35935979 -18.02640858 19.21091579 -18.01171875 17.0625 C-18.01870285 16.05405029 -18.02568695 15.04560059 -18.03288269 14.0065918 C-17.93892015 9.33293333 -17.85208522 6.98238859 -15.01879883 3.13671875 C-10.20986793 -0.21586744 -5.73161392 0.03963087 0 0 Z " fill="#E2E2E2" transform="translate(581.3125,60.75)"/>
<path d="M0 0 C10.56 0 21.12 0 32 0 C32 3.63 32 7.26 32 11 C26.06 11 20.12 11 14 11 C14 15.95 14 20.9 14 26 C18.95 26 23.9 26 29 26 C29 29.3 29 32.6 29 36 C24.05 36 19.1 36 14 36 C14 43.59 14 51.18 14 59 C9.38 59 4.76 59 0 59 C0 39.53 0 20.06 0 0 Z " fill="#E1E1E1" transform="translate(347,61)"/>
<path d="M0 0 C3.71786343 1.23928781 4.55103725 2.67470722 6.9375 5.75 C11.11120604 11.00501272 15.54498964 15.91592008 20.18920898 20.75878906 C24 24.78944532 24 24.78944532 24 27 C22.47959282 27.05506505 20.95857296 27.09326375 19.4375 27.125 C18.16712891 27.15980469 18.16712891 27.15980469 16.87109375 27.1953125 C13.39233404 26.95866218 10.33414292 25.99183459 7 25 C7.04713135 26.57297852 7.04713135 26.57297852 7.09521484 28.17773438 C7.20448248 32.09864113 7.27293551 36.01941572 7.32958984 39.94140625 C7.35961317 41.63304332 7.40044638 43.32452667 7.45263672 45.015625 C7.92984694 60.88520408 7.92984694 60.88520408 3.9765625 66.15625 C2.29931641 67.90039062 2.29931641 67.90039062 1 69 C-3.38583005 64.76036429 -5.21166105 62.25777298 -5.37905884 56.01887512 C-5.39061005 55.22502914 -5.40216125 54.43118317 -5.4140625 53.61328125 C-5.43342865 52.79627243 -5.4527948 51.97926361 -5.4727478 51.13749695 C-5.53250352 48.52927066 -5.57891258 45.92100014 -5.625 43.3125 C-5.6631835 41.5436006 -5.70223546 39.77471972 -5.7421875 38.00585938 C-5.83820168 33.67072341 -5.92224735 29.3355004 -6 25 C-6.93279785 25.32597168 -7.8655957 25.65194336 -8.82666016 25.98779297 C-11.91640011 26.97333396 -14.16047531 27.21187905 -17.375 27.125 C-18.24898438 27.10695313 -19.12296875 27.08890625 -20.0234375 27.0703125 C-20.67570312 27.04710938 -21.32796875 27.02390625 -22 27 C-20.76867356 22.48513639 -18.34523698 20.21500068 -15.0703125 17.09765625 C-11.81714016 13.80151748 -8.99577657 10.17054003 -6.11328125 6.55078125 C-4.18398718 4.22207694 -2.17568479 2.09710475 0 0 Z " fill="#97AD4C" transform="translate(115,26)"/>
<path d="M0 0 C4.82380802 -0.0246519 9.64757967 -0.04283693 14.47143555 -0.05493164 C16.11369464 -0.05997174 17.75594923 -0.06680378 19.39819336 -0.07543945 C21.75375479 -0.08751926 24.10925709 -0.09323139 26.46484375 -0.09765625 C27.20339096 -0.10281754 27.94193817 -0.10797882 28.7028656 -0.11329651 C30.46898088 -0.1134925 32.23497146 -0.06194719 34 0 C35 1 35 1 35.09765625 3.28515625 C35.06510417 5.85677083 35.03255208 8.42838542 35 11 C31.37 11 27.74 11 24 11 C24 26.84 24 42.68 24 59 C19.38 59 14.76 59 10 59 C10 43.16 10 27.32 10 11 C6.7 11 3.4 11 0 11 C0 7.37 0 3.74 0 0 Z " fill="#E2E2E2" transform="translate(756,61)"/>
<path d="M0 0 C4.29 0 8.58 0 13 0 C14 1 14 1 14.12025452 3.32215881 C14.1169236 4.86437355 14.1169236 4.86437355 14.11352539 6.43774414 C14.11344986 7.59887222 14.11337433 8.76000031 14.11329651 9.95631409 C14.10813522 11.219832 14.10297394 12.48334991 14.09765625 13.78515625 C14.0962413 15.07111191 14.09482635 16.35706757 14.09336853 17.68199158 C14.08954418 21.10643443 14.07971462 24.53083509 14.06866455 27.95526123 C14.05844864 31.44738189 14.05387053 34.93950934 14.04882812 38.43164062 C14.03809226 45.28777953 14.02049614 52.1438834 14 59 C9.38 59 4.76 59 0 59 C0 39.53 0 20.06 0 0 Z " fill="#E2E2E2" transform="translate(384,61)"/>
<path d="M0 0 C4.29 0 8.58 0 13 0 C13 19.47 13 38.94 13 59 C8.71 59 4.42 59 0 59 C0 39.53 0 20.06 0 0 Z " fill="#E1E1E1" transform="translate(450,61)"/>
<path d="M0 0 C4.29 0 8.58 0 13 0 C13 19.47 13 38.94 13 59 C8.71 59 4.42 59 0 59 C0 39.53 0 20.06 0 0 Z " fill="#E1E1E1" transform="translate(282,61)"/>
<path d="M0 0 C2.4375 0.8125 2.4375 0.8125 5.4375 2.8125 C5.81845093 5.31065369 5.81845093 5.31065369 5.82568359 8.49975586 C5.83514008 9.69116684 5.84459656 10.88257782 5.8543396 12.11009216 C5.84826691 13.40278519 5.84219421 14.69547821 5.8359375 16.02734375 C5.83795789 17.36251484 5.84086904 18.69768486 5.84463501 20.03285217 C5.8490616 22.83312471 5.84261801 25.63311039 5.82861328 28.43334961 C5.8115372 32.02268076 5.82134964 35.61133819 5.83933067 39.20064449 C5.8501739 41.95875621 5.84671952 44.71670837 5.8389473 47.47482491 C5.83597224 49.44187481 5.84508458 51.40893092 5.8543396 53.3759613 C5.84488312 54.57052444 5.83542664 55.76508759 5.82568359 56.99584961 C5.82329681 58.04904892 5.82091003 59.10224823 5.81845093 60.18736267 C5.4375 62.8125 5.4375 62.8125 4.10073853 64.6565094 C1.53443469 66.44015202 -0.52551671 66.12885243 -3.5625 65.8125 C-4.5525 65.1525 -5.5425 64.4925 -6.5625 63.8125 C-6.95018005 61.27638245 -6.95018005 61.27638245 -6.96655273 58.03344727 C-6.97923691 56.82201553 -6.99192108 55.6105838 -7.00498962 54.36244202 C-7.00205399 53.04787521 -6.99911835 51.73330841 -6.99609375 50.37890625 C-7.00065301 49.02131386 -7.00595781 47.66372378 -7.01197815 46.30613708 C-7.02092133 43.45879754 -7.0184731 40.61173828 -7.00854492 37.7644043 C-6.99705863 34.1144068 -7.01725362 30.46537722 -7.04646206 26.81550694 C-7.06480521 24.01106107 -7.06453542 21.2068479 -7.05882454 18.4023571 C-7.05859639 16.40204117 -7.07551614 14.4017472 -7.09263611 12.40150452 C-7.08325516 11.18692062 -7.07387421 9.97233673 -7.06420898 8.72094727 C-7.06404282 7.64998306 -7.06387665 6.57901886 -7.06370544 5.4756012 C-6.5625 2.8125 -6.5625 2.8125 -4.69129944 0.9315033 C-2.5625 -0.1875 -2.5625 -0.1875 0 0 Z " fill="#97AE4C" transform="translate(116.5625,144.1875)"/>
<path d="M0 0 C4.29 0 8.58 0 13 0 C13.07440448 5.15947346 13.12872191 10.31863151 13.16479492 15.47851562 C13.17983995 17.23215173 13.20028104 18.98575047 13.22631836 20.73925781 C13.26289121 23.26637009 13.2797692 25.79298296 13.29296875 28.3203125 C13.30845261 29.09867462 13.32393646 29.87703674 13.33988953 30.6789856 C13.34137281 35.52510084 12.66384974 38.79257759 10 43 C6.2500989 45.96044824 5.00962878 46 0 46 C0 30.82 0 15.64 0 0 Z " fill="#96AE4C" transform="translate(130,162)"/>
<path d="M0 0 C3.96 0 7.92 0 12 0 C12 15.18 12 30.36 12 46 C5 45 5 45 2.09301758 42.50732422 C-0.79541826 38.52812194 -0.63772614 34.64364571 -0.48828125 29.8828125 C-0.48120651 29.02565643 -0.47413177 28.16850037 -0.46684265 27.28536987 C-0.43899213 24.56433529 -0.37627456 21.84540593 -0.3125 19.125 C-0.2874049 17.27346735 -0.26459385 15.42190224 -0.24414062 13.5703125 C-0.18919651 9.04607154 -0.10299162 4.52339191 0 0 Z " fill="#97AE4C" transform="translate(89,162)"/>
<path d="M0 0 C1.98 0 3.96 0 6 0 C7.00419637 2.4566947 8.00350501 4.91518353 9 7.375 C9.28617187 8.07367188 9.57234375 8.77234375 9.8671875 9.4921875 C12 14.7734375 12 14.7734375 12 17 C12.66 17 13.32 17 14 17 C14.16822266 15.95779297 14.16822266 15.95779297 14.33984375 14.89453125 C15.08446115 11.62967036 16.24400088 8.76399795 17.5625 5.6875 C18.24505859 4.08455078 18.24505859 4.08455078 18.94140625 2.44921875 C19.29074219 1.64097656 19.64007813 0.83273438 20 0 C21.98 0 23.96 0 26 0 C26 8.25 26 16.5 26 25 C24.35 25 22.7 25 21 25 C20.67 21.04 20.34 17.08 20 13 C18.35 16.96 16.7 20.92 15 25 C13.35 24.67 11.7 24.34 10 24 C7.77704432 20.17432073 6.53668268 16.17099584 5 12 C4.67 16.29 4.34 20.58 4 25 C2.68 25 1.36 25 0 25 C0 16.75 0 8.5 0 0 Z " fill="#E1E1E1" transform="translate(481,145)"/>
<path d="M0 0 C1.65 0 3.3 0 5 0 C5.40992188 0.90363281 5.81984375 1.80726563 6.2421875 2.73828125 C6.78101563 3.91777344 7.31984375 5.09726563 7.875 6.3125 C8.67550781 8.07013672 8.67550781 8.07013672 9.4921875 9.86328125 C10.9385919 13.05896943 10.9385919 13.05896943 13 16 C13.42152344 14.92878906 13.84304688 13.85757813 14.27734375 12.75390625 C14.83059319 11.35671698 15.38398602 9.95958449 15.9375 8.5625 C16.21529297 7.85544922 16.49308594 7.14839844 16.77929688 6.41992188 C18.88671875 1.11328125 18.88671875 1.11328125 20 0 C21.65 0 23.3 0 25 0 C25 8.25 25 16.5 25 25 C23.68 25 22.36 25 21 25 C20.505 18.565 20.505 18.565 20 12 C18.35 16.29 16.7 20.58 15 25 C13.35 25 11.7 25 10 25 C8.35 21.04 6.7 17.08 5 13 C4.67 16.96 4.34 20.92 4 25 C2.68 25 1.36 25 0 25 C0 16.75 0 8.5 0 0 Z " fill="#E1E1E1" transform="translate(640,145)"/>
<path d="M0 0 C5 0 5 0 6.4855957 1.37695312 C6.87835693 2.00537109 7.27111816 2.63378906 7.67578125 3.28125 C8.11083984 3.95800781 8.54589844 4.63476562 8.99414062 5.33203125 C9.42919922 6.04746094 9.86425781 6.76289063 10.3125 7.5 C10.76689453 8.21542969 11.22128906 8.93085938 11.68945312 9.66796875 C12.80881194 11.43537741 13.90652207 13.21646319 15 15 C15.33 10.05 15.66 5.1 16 0 C17.65 0 19.3 0 21 0 C21 8.25 21 16.5 21 25 C16 25 16 25 14.5144043 23.71484375 C14.12164307 23.12832031 13.72888184 22.54179687 13.32421875 21.9375 C12.88916016 21.30585938 12.45410156 20.67421875 12.00585938 20.0234375 C11.57080078 19.35570312 11.13574219 18.68796875 10.6875 18 C10.23310547 17.33226562 9.77871094 16.66453125 9.31054688 15.9765625 C8.1918275 14.32792342 7.09386962 12.66523065 6 11 C5.67 15.62 5.34 20.24 5 25 C3.35 25 1.7 25 0 25 C0 16.75 0 8.5 0 0 Z " fill="#E2E2E2" transform="translate(713,145)"/>
<path d="M0 0 C5 0 5 0 6.4855957 1.37695312 C6.87835693 2.00537109 7.27111816 2.63378906 7.67578125 3.28125 C8.11083984 3.95800781 8.54589844 4.63476562 8.99414062 5.33203125 C9.42919922 6.04746094 9.86425781 6.76289063 10.3125 7.5 C10.76689453 8.21542969 11.22128906 8.93085938 11.68945312 9.66796875 C12.80881194 11.43537741 13.90652207 13.21646319 15 15 C15.33 10.05 15.66 5.1 16 0 C17.65 0 19.3 0 21 0 C21 8.25 21 16.5 21 25 C16 25 16 25 14.5144043 23.71484375 C14.12164307 23.12832031 13.72888184 22.54179687 13.32421875 21.9375 C12.88916016 21.30585938 12.45410156 20.67421875 12.00585938 20.0234375 C11.57080078 19.35570312 11.13574219 18.68796875 10.6875 18 C10.23310547 17.33226562 9.77871094 16.66453125 9.31054688 15.9765625 C8.1918275 14.32792342 7.09386962 12.66523065 6 11 C5.67 15.62 5.34 20.24 5 25 C3.35 25 1.7 25 0 25 C0 16.75 0 8.5 0 0 Z " fill="#E2E2E2" transform="translate(532,145)"/>
<path d="M0 0 C5 0 5 0 6.4855957 1.28515625 C6.87835693 1.87167969 7.27111816 2.45820313 7.67578125 3.0625 C8.11083984 3.69414062 8.54589844 4.32578125 8.99414062 4.9765625 C9.42919922 5.64429688 9.86425781 6.31203125 10.3125 7 C10.76689453 7.66773438 11.22128906 8.33546875 11.68945312 9.0234375 C12.8081725 10.67207658 13.90613038 12.33476935 15 14 C15.33 9.38 15.66 4.76 16 0 C17.65 0 19.3 0 21 0 C21 8.25 21 16.5 21 25 C16 25 16 25 14.5144043 23.62304688 C13.92526245 22.68041992 13.92526245 22.68041992 13.32421875 21.71875 C12.88916016 21.04199219 12.45410156 20.36523438 12.00585938 19.66796875 C11.57080078 18.95253906 11.13574219 18.23710937 10.6875 17.5 C10.23310547 16.78457031 9.77871094 16.06914062 9.31054688 15.33203125 C8.19118806 13.56462259 7.09347793 11.78353681 6 10 C5.67 14.95 5.34 19.9 5 25 C3.35 25 1.7 25 0 25 C0 16.75 0 8.5 0 0 Z " fill="#E1E1E1" transform="translate(367,145)"/>
<path d="M0 0 C3.96 0 7.92 0 12 0 C12.10845027 3.04263267 12.18752063 6.08136204 12.25 9.125 C12.30027344 10.40890625 12.30027344 10.40890625 12.3515625 11.71875 C12.43787655 17.32916351 11.83041258 20.59049044 8 25 C5.02970278 26.59381802 3.37610023 27 0 27 C0 18.09 0 9.18 0 0 Z " fill="#96AD4C" transform="translate(152,176)"/>
<path d="M0 0 C3.96 0 7.92 0 12 0 C12 8.91 12 17.82 12 27 C5.78512943 25.96418824 4.83936878 25.49754628 1 21 C-0.17426264 18.65147472 -0.11508173 17.26225935 -0.09765625 14.6484375 C-0.09443359 13.79765625 -0.09121094 12.946875 -0.08789062 12.0703125 C-0.07951172 11.18085938 -0.07113281 10.29140625 -0.0625 9.375 C-0.05798828 8.4778125 -0.05347656 7.580625 -0.04882812 6.65625 C-0.03702611 4.43747169 -0.01909039 2.21872757 0 0 Z " fill="#96AD4C" transform="translate(68,176)"/>
<path d="M0 0 C3.0281842 2.48504551 4.75778049 5.27334148 6 9 C6.39567015 14.24262952 5.83592201 17.54355112 3 22 C-0.01872504 25.01872504 -2.75544971 25.83354705 -7 26 C-10.73420153 24.86075208 -13.21116067 23.81428576 -15.9375 21 C-18.05497922 15.02123513 -18.02853632 9.17135445 -15.3125 3.4375 C-10.9243628 -1.18783381 -6.09755066 -2.14338144 0 0 Z M-11.5 5.9375 C-13.53188702 10.085936 -13.37429837 13.60553693 -12 18 C-9.99425768 20.54706482 -9.36263679 20.94599027 -6.0625 21.4375 C-2.98305268 21.20154381 -2.98305268 21.20154381 -0.625 19.5625 C1.78226912 15.76642178 1.64213079 12.37451602 1 8 C0.15479867 5.34155783 0.15479867 5.34155783 -2 4 C-6.17592236 3.31666725 -8.1179576 3.31641714 -11.5 5.9375 Z " fill="#E1E1E1" transform="translate(630,145)"/>
<path d="M0 0 C2.5 1.875 2.5 1.875 4 4 C4 4.99 4 5.98 4 7 C1.6875 7.1875 1.6875 7.1875 -1 7 C-1.495 6.484375 -1.99 5.96875 -2.5 5.4375 C-2.995 4.963125 -3.49 4.48875 -4 4 C-6.65466049 4.23043864 -6.65466049 4.23043864 -9 5 C-9 5.99 -9 6.98 -9 8 C-8.31292969 8.25394531 -7.62585938 8.50789062 -6.91796875 8.76953125 C-6.01691406 9.11371094 -5.11585938 9.45789063 -4.1875 9.8125 C-2.84751953 10.31716797 -2.84751953 10.31716797 -1.48046875 10.83203125 C0.95970663 11.98102721 2.3539572 12.88365926 4 15 C4.52640336 18.53442254 4.45822707 20.29356661 2.5 23.3125 C-0.86569487 25.58434404 -4.00975739 26.19147037 -8 26 C-11.4375 24.875 -11.4375 24.875 -14 23 C-14.875 20.3125 -14.875 20.3125 -15 18 C-13.35 18 -11.7 18 -10 18 C-9.67 18.66 -9.34 19.32 -9 20 C-6.69 20 -4.38 20 -2 20 C-2 18.68 -2 17.36 -2 16 C-2.61488281 15.81824219 -3.22976563 15.63648438 -3.86328125 15.44921875 C-4.67152344 15.19785156 -5.47976563 14.94648438 -6.3125 14.6875 C-7.11300781 14.44386719 -7.91351563 14.20023438 -8.73828125 13.94921875 C-11.16112827 12.93237622 -12.41156336 12.08261693 -14 10 C-14.65044248 3.92920354 -14.65044248 3.92920354 -12.6875 1.125 C-8.61846096 -1.58769269 -4.54700216 -1.1985056 0 0 Z " fill="#E1E1E1" transform="translate(451,145)"/>
<path d="M0 0 C5.61 0 11.22 0 17 0 C17 1.32 17 2.64 17 4 C13.04 4 9.08 4 5 4 C5 5.98 5 7.96 5 10 C8.63 10 12.26 10 16 10 C16 11.32 16 12.64 16 14 C12.37 14 8.74 14 5 14 C5 16.31 5 18.62 5 21 C8.96 21 12.92 21 17 21 C17 22.32 17 23.64 17 25 C11.39 25 5.78 25 0 25 C0 16.75 0 8.5 0 0 Z " fill="#E1E1E1" transform="translate(511,145)"/>
<path d="M0 0 C5.61 0 11.22 0 17 0 C17 1.32 17 2.64 17 4 C13.04 4 9.08 4 5 4 C5 5.98 5 7.96 5 10 C8.63 10 12.26 10 16 10 C16 11.32 16 12.64 16 14 C12.37 14 8.74 14 5 14 C5 16.31 5 18.62 5 21 C8.96 21 12.92 21 17 21 C17 22.32 17 23.64 17 25 C11.39 25 5.78 25 0 25 C0 16.75 0 8.5 0 0 Z " fill="#E1E1E1" transform="translate(416,145)"/>
<path d="M0 0 C1.98 0 3.96 0 6 0 C7.34117853 3.60129621 8.6715839 7.20647859 10 10.8125 C10.3815625 11.83666016 10.763125 12.86082031 11.15625 13.91601562 C11.5171875 14.89892578 11.878125 15.88183594 12.25 16.89453125 C12.75273438 18.25348511 12.75273438 18.25348511 13.265625 19.63989258 C14 22 14 22 14 25 C12.35 25 10.7 25 9 25 C8.34 23.35 7.68 21.7 7 20 C4.03 19.67 1.06 19.34 -2 19 C-2.66 20.98 -3.32 22.96 -4 25 C-5.65 25 -7.3 25 -9 25 C-7.8799608 21.58168693 -6.75310727 18.16565812 -5.625 14.75 C-5.30789063 13.78191406 -4.99078125 12.81382812 -4.6640625 11.81640625 C-4.3546875 10.88183594 -4.0453125 9.94726562 -3.7265625 8.984375 C-3.44377441 8.12553711 -3.16098633 7.26669922 -2.86962891 6.38183594 C-2.05562726 4.15235809 -1.10768876 2.096545 0 0 Z M2 6 C1.34 8.97 0.68 11.94 0 15 C1.98 15 3.96 15 6 15 C5.01 12.03 4.02 9.06 3 6 C2.67 6 2.34 6 2 6 Z " fill="#E1E1E1" transform="translate(696,145)"/>
<path d="M0 0 C2.2894642 1.83817559 3.37723551 3.46443048 5 6 C5 6.99 5 7.98 5 9 C3.35 9 1.7 9 0 9 C-0.66 7.68 -1.32 6.36 -2 5 C-6.78956393 4.52152937 -6.78956393 4.52152937 -11 6.4375 C-12.51083733 10.30902067 -12.02453895 14.00969039 -11 18 C-9.23863645 20.18331689 -9.23863645 20.18331689 -7.0546875 20.1953125 C-4.02734375 20.09765625 -4.02734375 20.09765625 -1 20 C-0.67 18.68 -0.34 17.36 0 16 C1.65 16 3.3 16 5 16 C4.16207611 19.14221458 3.53440843 21.44650556 1.25 23.8125 C-3.1182603 26.11797071 -5.94530999 26.32176983 -10.6875 24.875 C-14.41067501 22.76754245 -15.58004438 22.00928644 -17 18 C-17.65658042 12.6242478 -17.6522177 8.37690403 -15.3125 3.4375 C-10.92252911 -1.18976661 -6.09941288 -2.13971339 0 0 Z " fill="#E1E1E1" transform="translate(605,145)"/>
<path d="M0 0 C13.3231441 -0.49344978 13.3231441 -0.49344978 16.421875 1.765625 C18.53790137 4.76158312 18.59007326 6.53426236 18.37109375 10.09765625 C18 12 18 12 16.5625 14.4375 C12.86903663 16.68961181 9.26084972 16.8179124 5 17 C5 19.64 5 22.28 5 25 C3.35 25 1.7 25 0 25 C0 16.75 0 8.5 0 0 Z M5 4 C5 6.64 5 9.28 5 12 C7.31 12 9.62 12 12 12 C13.19838209 9.67145537 13.19838209 9.67145537 14 7 C13.34 6.01 12.68 5.02 12 4 C8.41642759 3.74984127 8.41642759 3.74984127 5 4 Z " fill="#E2E2E2" transform="translate(670,145)"/>
<path d="M0 0 C1.65 0 3.3 0 5 0 C6.98 5.61 8.96 11.22 11 17 C12.93257638 11.78053027 12.93257638 11.78053027 14.85913086 6.55883789 C16.88888889 1.11111111 16.88888889 1.11111111 18 0 C19.66617115 -0.04063832 21.33388095 -0.042721 23 0 C21.68970128 3.79243101 20.37638934 7.58381161 19.0625 11.375 C18.68931641 12.45523438 18.31613281 13.53546875 17.93164062 14.6484375 C17.57392578 15.6796875 17.21621094 16.7109375 16.84765625 17.7734375 C16.51773682 18.72653809 16.18781738 19.67963867 15.84790039 20.66162109 C15 23 15 23 14 25 C12.02 25 10.04 25 8 25 C6.66165014 21.21008507 5.33017337 17.41779164 4 13.625 C3.6184375 12.54476562 3.236875 11.46453125 2.84375 10.3515625 C2.4828125 9.3203125 2.121875 8.2890625 1.75 7.2265625 C1.41484375 6.27346191 1.0796875 5.32036133 0.734375 4.33837891 C0 2 0 2 0 0 Z " fill="#E1E1E1" transform="translate(391,145)"/>
<path d="M0 0 C2.7890625 -0.28125 2.7890625 -0.28125 6 0 C7.8984375 1.96875 7.8984375 1.96875 9.375 4.5 C9.87773438 5.3353125 10.38046875 6.170625 10.8984375 7.03125 C11.26195312 7.6809375 11.62546875 8.330625 12 9 C13.65 6.03 15.3 3.06 17 0 C18.98 0 20.96 0 23 0 C22.043419 1.77178053 21.08467012 3.54239076 20.125 5.3125 C19.59132813 6.29863281 19.05765625 7.28476563 18.5078125 8.30078125 C17 11 17 11 15 14 C14.54227937 16.73872955 14.54227937 16.73872955 14.375 19.6875 C14.30023437 20.68136719 14.22546875 21.67523438 14.1484375 22.69921875 C14.09945312 23.45847656 14.05046875 24.21773437 14 25 C12.35 25 10.7 25 9 25 C9.020625 24.36835938 9.04125 23.73671875 9.0625 23.0859375 C8.84932072 13.83928606 4.84910858 7.56637672 0 0 Z " fill="#E1E1E1" transform="translate(736,145)"/>
<path d="M0 0 C6.6 0 13.2 0 20 0 C19.67 1.32 19.34 2.64 19 4 C16.69 4 14.38 4 12 4 C12 10.93 12 17.86 12 25 C10.35 25 8.7 25 7 25 C7 18.07 7 11.14 7 4 C4.69 4 2.38 4 0 4 C0 2.68 0 1.36 0 0 Z " fill="#E2E2E2" transform="translate(458,145)"/>
<path d="M0 0 C6.6 0 13.2 0 20 0 C20 1.32 20 2.64 20 4 C17.36 4 14.72 4 12 4 C12 10.93 12 17.86 12 25 C10.68 25 9.36 25 8 25 C8 18.07 8 11.14 8 4 C5.36 4 2.72 4 0 4 C0 2.68 0 1.36 0 0 Z " fill="#E2E2E2" transform="translate(556,145)"/>
<path d="M0 0 C1.65 0 3.3 0 5 0 C5 8.25 5 16.5 5 25 C3.35 25 1.7 25 0 25 C0 16.75 0 8.5 0 0 Z " fill="#E2E2E2" transform="translate(358,145)"/>
</svg>
